<mxfile host="app.diagrams.net" modified="2022-05-20T06:56:33.968Z" agent="5.0 (Macintosh; Intel Mac OS X 10_15_7) AppleWebKit/537.36 (KHTML, like Gecko) Chrome/101.0.4951.64 Safari/537.36" etag="fZ-hNwaWGKxlFHbpgel4" version="18.0.8" type="github">
  <diagram id="92qgGHZedwL5Q1Y-DCkX" name="Page-1">
    <mxGraphModel dx="1186" dy="708" grid="1" gridSize="10" guides="1" tooltips="1" connect="1" arrows="1" fold="1" page="1" pageScale="1" pageWidth="850" pageHeight="1100" math="0" shadow="0">
      <root>
        <mxCell id="0" />
        <mxCell id="1" parent="0" />
        <mxCell id="0Go4OFcbjEMBf_jbjGhI-2" value="" style="edgeStyle=orthogonalEdgeStyle;rounded=0;html=1;jettySize=auto;orthogonalLoop=1;plain-blue;endArrow=none;endFill=0;strokeWidth=4;strokeColor=#000000;startArrow=none;" parent="1" source="0Go4OFcbjEMBf_jbjGhI-129" edge="1">
          <mxGeometry x="252.25" y="231" as="geometry">
            <mxPoint x="450" y="230" as="targetPoint" />
            <Array as="points">
              <mxPoint x="351" y="231" />
              <mxPoint x="351" y="230" />
            </Array>
          </mxGeometry>
        </mxCell>
        <mxCell id="0Go4OFcbjEMBf_jbjGhI-3" style="edgeStyle=orthogonalEdgeStyle;curved=1;rounded=0;html=1;exitX=1;exitY=0.5;exitPerimeter=0;entryX=0;entryY=0.5;entryPerimeter=0;endArrow=none;endFill=0;jettySize=auto;orthogonalLoop=1;strokeWidth=4;fontSize=15;" parent="1" source="0Go4OFcbjEMBf_jbjGhI-4" target="0Go4OFcbjEMBf_jbjGhI-12" edge="1">
          <mxGeometry relative="1" as="geometry" />
        </mxCell>
        <mxCell id="0Go4OFcbjEMBf_jbjGhI-4" value="" style="verticalLabelPosition=bottom;verticalAlign=top;html=1;strokeWidth=4;shape=mxgraph.flowchart.on-page_reference;plain-blue;gradientColor=none;fillColor=#B5E3Fe;strokeColor=#000000;" parent="1" vertex="1">
          <mxGeometry x="222.25" y="216" width="30" height="30" as="geometry" />
        </mxCell>
        <mxCell id="0Go4OFcbjEMBf_jbjGhI-5" value="" style="edgeStyle=orthogonalEdgeStyle;curved=1;rounded=0;orthogonalLoop=1;jettySize=auto;html=1;endArrow=none;endFill=0;strokeWidth=4;entryX=0;entryY=0.5;entryDx=0;entryDy=0;entryPerimeter=0;startArrow=none;" parent="1" source="0Go4OFcbjEMBf_jbjGhI-127" target="0Go4OFcbjEMBf_jbjGhI-8" edge="1">
          <mxGeometry relative="1" as="geometry">
            <mxPoint x="694.4999999999995" y="231" as="targetPoint" />
          </mxGeometry>
        </mxCell>
        <mxCell id="0Go4OFcbjEMBf_jbjGhI-6" style="edgeStyle=orthogonalEdgeStyle;curved=1;rounded=0;orthogonalLoop=1;jettySize=auto;html=1;exitX=1;exitY=0.5;exitDx=0;exitDy=0;exitPerimeter=0;entryX=0;entryY=0.5;entryDx=0;entryDy=0;entryPerimeter=0;endArrow=none;endFill=0;strokeWidth=4;fontFamily=Courier New;fontColor=#009900;" parent="1" source="0Go4OFcbjEMBf_jbjGhI-7" target="0Go4OFcbjEMBf_jbjGhI-44" edge="1">
          <mxGeometry relative="1" as="geometry" />
        </mxCell>
        <mxCell id="0Go4OFcbjEMBf_jbjGhI-7" value="" style="verticalLabelPosition=bottom;verticalAlign=top;html=1;strokeWidth=4;shape=mxgraph.flowchart.on-page_reference;plain-blue;gradientColor=none;strokeColor=#000000;fillColor=#B5E3FE;" parent="1" vertex="1">
          <mxGeometry x="640" y="216" width="30" height="30" as="geometry" />
        </mxCell>
        <mxCell id="0Go4OFcbjEMBf_jbjGhI-8" value="" style="verticalLabelPosition=bottom;verticalAlign=top;html=1;strokeWidth=4;shape=mxgraph.flowchart.on-page_reference;plain-blue;gradientColor=none;strokeColor=#33001A;fillColor=#B5E3FE;" parent="1" vertex="1">
          <mxGeometry x="1210" y="216" width="30" height="30" as="geometry" />
        </mxCell>
        <mxCell id="0Go4OFcbjEMBf_jbjGhI-9" value="" style="edgeStyle=orthogonalEdgeStyle;rounded=0;html=1;jettySize=auto;orthogonalLoop=1;strokeWidth=4;endArrow=none;endFill=0;" parent="1" target="0Go4OFcbjEMBf_jbjGhI-4" edge="1">
          <mxGeometry x="152.25" y="231" as="geometry">
            <mxPoint x="110" y="231" as="sourcePoint" />
          </mxGeometry>
        </mxCell>
        <mxCell id="0Go4OFcbjEMBf_jbjGhI-10" value="green" style="text;html=1;strokeColor=none;fillColor=none;align=center;verticalAlign=middle;whiteSpace=wrap;overflow=hidden;fontSize=14;fontStyle=1;fontFamily=Courier New;" parent="1" vertex="1">
          <mxGeometry x="43" y="210" width="50" height="42" as="geometry" />
        </mxCell>
        <mxCell id="0Go4OFcbjEMBf_jbjGhI-11" style="edgeStyle=orthogonalEdgeStyle;curved=1;rounded=0;html=1;exitX=1;exitY=0.5;exitPerimeter=0;endArrow=none;endFill=0;jettySize=auto;orthogonalLoop=1;strokeWidth=4;fontSize=15;" parent="1" source="0Go4OFcbjEMBf_jbjGhI-12" target="0Go4OFcbjEMBf_jbjGhI-14" edge="1">
          <mxGeometry relative="1" as="geometry" />
        </mxCell>
        <mxCell id="0Go4OFcbjEMBf_jbjGhI-12" value="" style="verticalLabelPosition=bottom;verticalAlign=top;html=1;strokeWidth=4;shape=mxgraph.flowchart.on-page_reference;plain-purple;gradientColor=none;strokeColor=#000000;fillColor=#D5E8D4;" parent="1" vertex="1">
          <mxGeometry x="290" y="340" width="30" height="30" as="geometry" />
        </mxCell>
        <mxCell id="0Go4OFcbjEMBf_jbjGhI-13" style="edgeStyle=orthogonalEdgeStyle;curved=1;rounded=0;html=1;exitX=1;exitY=0.5;exitPerimeter=0;entryX=0;entryY=0.5;entryPerimeter=0;endArrow=none;endFill=0;jettySize=auto;orthogonalLoop=1;strokeWidth=4;fontSize=15;" parent="1" source="0Go4OFcbjEMBf_jbjGhI-14" target="0Go4OFcbjEMBf_jbjGhI-16" edge="1">
          <mxGeometry relative="1" as="geometry" />
        </mxCell>
        <mxCell id="0Go4OFcbjEMBf_jbjGhI-14" value="" style="verticalLabelPosition=bottom;verticalAlign=top;html=1;strokeWidth=4;shape=mxgraph.flowchart.on-page_reference;plain-purple;gradientColor=none;strokeColor=#000000;fillColor=#D5E8D4;" parent="1" vertex="1">
          <mxGeometry x="425" y="340" width="30" height="30" as="geometry" />
        </mxCell>
        <mxCell id="0Go4OFcbjEMBf_jbjGhI-15" style="edgeStyle=orthogonalEdgeStyle;curved=1;rounded=0;html=1;exitX=1;exitY=0.5;exitPerimeter=0;entryX=0;entryY=0.5;entryPerimeter=0;endArrow=none;endFill=0;jettySize=auto;orthogonalLoop=1;strokeWidth=4;fontSize=15;" parent="1" source="0Go4OFcbjEMBf_jbjGhI-16" target="0Go4OFcbjEMBf_jbjGhI-7" edge="1">
          <mxGeometry relative="1" as="geometry" />
        </mxCell>
        <mxCell id="0Go4OFcbjEMBf_jbjGhI-16" value="" style="verticalLabelPosition=bottom;verticalAlign=top;html=1;strokeWidth=4;shape=mxgraph.flowchart.on-page_reference;plain-purple;gradientColor=none;strokeColor=#000000;fillColor=#D5E8D4;" parent="1" vertex="1">
          <mxGeometry x="550" y="340" width="30" height="30" as="geometry" />
        </mxCell>
        <mxCell id="0Go4OFcbjEMBf_jbjGhI-17" value="release-4.6.0-CT" style="text;html=1;strokeColor=none;fillColor=none;align=left;verticalAlign=middle;whiteSpace=wrap;overflow=hidden;fontSize=14;fontStyle=1;fontFamily=Courier New;" parent="1" vertex="1">
          <mxGeometry x="43" y="340" width="240" height="20" as="geometry" />
        </mxCell>
        <mxCell id="0Go4OFcbjEMBf_jbjGhI-18" value="" style="edgeStyle=orthogonalEdgeStyle;rounded=0;orthogonalLoop=1;jettySize=auto;html=1;endArrow=none;endFill=0;strokeWidth=4;" parent="1" source="0Go4OFcbjEMBf_jbjGhI-21" target="0Go4OFcbjEMBf_jbjGhI-23" edge="1">
          <mxGeometry relative="1" as="geometry">
            <Array as="points">
              <mxPoint x="490" y="525" />
              <mxPoint x="490" y="525" />
            </Array>
          </mxGeometry>
        </mxCell>
        <mxCell id="0Go4OFcbjEMBf_jbjGhI-19" style="edgeStyle=orthogonalEdgeStyle;rounded=0;orthogonalLoop=1;jettySize=auto;html=1;entryX=1;entryY=0.5;entryDx=0;entryDy=0;entryPerimeter=0;endArrow=none;endFill=0;strokeWidth=4;curved=1;" parent="1" source="0Go4OFcbjEMBf_jbjGhI-21" target="0Go4OFcbjEMBf_jbjGhI-12" edge="1">
          <mxGeometry relative="1" as="geometry" />
        </mxCell>
        <mxCell id="0Go4OFcbjEMBf_jbjGhI-20" style="edgeStyle=orthogonalEdgeStyle;curved=1;rounded=0;orthogonalLoop=1;jettySize=auto;html=1;exitX=1;exitY=0.5;exitDx=0;exitDy=0;exitPerimeter=0;entryX=0;entryY=0.5;entryDx=0;entryDy=0;entryPerimeter=0;endArrow=none;endFill=0;strokeWidth=4;fontFamily=Courier New;fontColor=#009900;" parent="1" source="0Go4OFcbjEMBf_jbjGhI-21" target="0Go4OFcbjEMBf_jbjGhI-30" edge="1">
          <mxGeometry relative="1" as="geometry" />
        </mxCell>
        <mxCell id="0Go4OFcbjEMBf_jbjGhI-21" value="" style="verticalLabelPosition=bottom;verticalAlign=top;html=1;strokeWidth=4;shape=mxgraph.flowchart.on-page_reference;plain-purple;gradientColor=none;strokeColor=#000000;fillColor=#D5E8D4;" parent="1" vertex="1">
          <mxGeometry x="390" y="510" width="30" height="30" as="geometry" />
        </mxCell>
        <mxCell id="0Go4OFcbjEMBf_jbjGhI-22" value="" style="edgeStyle=orthogonalEdgeStyle;curved=1;rounded=0;orthogonalLoop=1;jettySize=auto;html=1;endArrow=none;endFill=0;strokeWidth=4;" parent="1" source="0Go4OFcbjEMBf_jbjGhI-23" target="0Go4OFcbjEMBf_jbjGhI-25" edge="1">
          <mxGeometry relative="1" as="geometry" />
        </mxCell>
        <mxCell id="0Go4OFcbjEMBf_jbjGhI-23" value="" style="verticalLabelPosition=bottom;verticalAlign=top;html=1;strokeWidth=4;shape=mxgraph.flowchart.on-page_reference;plain-purple;gradientColor=none;strokeColor=#000000;fillColor=#D5E8D4;" parent="1" vertex="1">
          <mxGeometry x="550" y="510" width="30" height="30" as="geometry" />
        </mxCell>
        <mxCell id="0Go4OFcbjEMBf_jbjGhI-24" value="" style="edgeStyle=orthogonalEdgeStyle;curved=1;rounded=0;orthogonalLoop=1;jettySize=auto;html=1;endArrow=none;endFill=0;strokeWidth=4;fontFamily=Courier New;fontColor=#009900;" parent="1" source="0Go4OFcbjEMBf_jbjGhI-25" target="0Go4OFcbjEMBf_jbjGhI-27" edge="1">
          <mxGeometry relative="1" as="geometry" />
        </mxCell>
        <mxCell id="0Go4OFcbjEMBf_jbjGhI-25" value="" style="verticalLabelPosition=bottom;verticalAlign=top;html=1;strokeWidth=4;shape=mxgraph.flowchart.on-page_reference;plain-purple;gradientColor=none;strokeColor=#000000;fillColor=#D5E8D4;" parent="1" vertex="1">
          <mxGeometry x="779" y="510" width="30" height="30" as="geometry" />
        </mxCell>
        <mxCell id="0Go4OFcbjEMBf_jbjGhI-26" style="edgeStyle=orthogonalEdgeStyle;curved=1;rounded=0;orthogonalLoop=1;jettySize=auto;html=1;entryX=0;entryY=0.5;entryDx=0;entryDy=0;entryPerimeter=0;endArrow=none;endFill=0;strokeWidth=4;fontFamily=Courier New;fontColor=#009900;" parent="1" source="0Go4OFcbjEMBf_jbjGhI-27" target="0Go4OFcbjEMBf_jbjGhI-46" edge="1">
          <mxGeometry relative="1" as="geometry" />
        </mxCell>
        <mxCell id="0Go4OFcbjEMBf_jbjGhI-27" value="" style="verticalLabelPosition=bottom;verticalAlign=top;html=1;strokeWidth=4;shape=mxgraph.flowchart.on-page_reference;plain-purple;gradientColor=none;strokeColor=#000000;fillColor=#D5E8D4;" parent="1" vertex="1">
          <mxGeometry x="1030" y="510" width="30" height="30" as="geometry" />
        </mxCell>
        <mxCell id="0Go4OFcbjEMBf_jbjGhI-28" value="main" style="text;html=1;strokeColor=none;fillColor=none;align=left;verticalAlign=middle;whiteSpace=wrap;overflow=hidden;fontSize=14;fontStyle=1;fontFamily=Courier New;" parent="1" vertex="1">
          <mxGeometry x="104" y="480" width="91" height="20" as="geometry" />
        </mxCell>
        <mxCell id="0Go4OFcbjEMBf_jbjGhI-29" value="" style="edgeStyle=orthogonalEdgeStyle;rounded=0;orthogonalLoop=1;jettySize=auto;html=1;endArrow=none;endFill=0;strokeWidth=4;startArrow=none;" parent="1" source="0Go4OFcbjEMBf_jbjGhI-99" target="0Go4OFcbjEMBf_jbjGhI-32" edge="1">
          <mxGeometry relative="1" as="geometry" />
        </mxCell>
        <mxCell id="0Go4OFcbjEMBf_jbjGhI-30" value="" style="verticalLabelPosition=bottom;verticalAlign=top;html=1;strokeWidth=4;shape=mxgraph.flowchart.on-page_reference;plain-purple;gradientColor=none;strokeColor=#000000;fillColor=#D5E8D4;" parent="1" vertex="1">
          <mxGeometry x="480" y="670" width="30" height="30" as="geometry" />
        </mxCell>
        <mxCell id="0Go4OFcbjEMBf_jbjGhI-31" style="edgeStyle=orthogonalEdgeStyle;curved=1;rounded=0;orthogonalLoop=1;jettySize=auto;html=1;exitX=1;exitY=0.5;exitDx=0;exitDy=0;exitPerimeter=0;entryX=0;entryY=0.5;entryDx=0;entryDy=0;entryPerimeter=0;endArrow=none;endFill=0;strokeWidth=4;fontFamily=Courier New;fontColor=#009900;" parent="1" source="0Go4OFcbjEMBf_jbjGhI-32" target="0Go4OFcbjEMBf_jbjGhI-27" edge="1">
          <mxGeometry relative="1" as="geometry" />
        </mxCell>
        <mxCell id="0Go4OFcbjEMBf_jbjGhI-32" value="" style="verticalLabelPosition=bottom;verticalAlign=top;html=1;strokeWidth=4;shape=mxgraph.flowchart.on-page_reference;plain-purple;gradientColor=none;strokeColor=#000000;fillColor=#D5E8D4;" parent="1" vertex="1">
          <mxGeometry x="820" y="670" width="30" height="30" as="geometry" />
        </mxCell>
        <mxCell id="0Go4OFcbjEMBf_jbjGhI-33" value="feature branch" style="text;html=1;strokeColor=none;fillColor=none;align=left;verticalAlign=middle;whiteSpace=wrap;overflow=hidden;fontSize=14;fontStyle=1;fontFamily=Courier New;" parent="1" vertex="1">
          <mxGeometry x="80" y="620" width="240" height="20" as="geometry" />
        </mxCell>
        <mxCell id="0Go4OFcbjEMBf_jbjGhI-34" value="The development or sprint branch" style="text;html=1;strokeColor=none;fillColor=none;align=left;verticalAlign=middle;whiteSpace=wrap;overflow=hidden;fontSize=14;fontStyle=0;fontColor=#009900;" parent="1" vertex="1">
          <mxGeometry x="32.25" y="510" width="240" height="20" as="geometry" />
        </mxCell>
        <mxCell id="0Go4OFcbjEMBf_jbjGhI-35" value="Your feature branch" style="text;html=1;strokeColor=none;fillColor=none;align=left;verticalAlign=middle;whiteSpace=wrap;overflow=hidden;fontSize=14;fontStyle=0;fontColor=#009900;" parent="1" vertex="1">
          <mxGeometry x="80" y="660" width="240" height="20" as="geometry" />
        </mxCell>
        <mxCell id="0Go4OFcbjEMBf_jbjGhI-36" value="Staging branch of CT&amp;nbsp;" style="text;html=1;strokeColor=none;fillColor=none;align=left;verticalAlign=middle;whiteSpace=wrap;overflow=hidden;fontSize=14;fontStyle=0;fontColor=#009900;" parent="1" vertex="1">
          <mxGeometry x="43" y="360" width="240" height="20" as="geometry" />
        </mxCell>
        <mxCell id="0Go4OFcbjEMBf_jbjGhI-37" value="The main branch&lt;br&gt;" style="text;html=1;strokeColor=none;fillColor=none;align=left;verticalAlign=middle;whiteSpace=wrap;overflow=hidden;fontSize=14;fontStyle=0;fontColor=#009900;" parent="1" vertex="1">
          <mxGeometry x="48.25" y="240" width="146.75" height="20" as="geometry" />
        </mxCell>
        <mxCell id="0Go4OFcbjEMBf_jbjGhI-38" value="" style="endArrow=classic;html=1;strokeWidth=1;fontFamily=Courier New;fontColor=#009900;" parent="1" edge="1">
          <mxGeometry width="50" height="50" relative="1" as="geometry">
            <mxPoint x="266.75" y="680" as="sourcePoint" />
            <mxPoint x="416.75" y="680.5" as="targetPoint" />
          </mxGeometry>
        </mxCell>
        <mxCell id="0Go4OFcbjEMBf_jbjGhI-39" value="" style="endArrow=classic;html=1;strokeWidth=1;fontFamily=Courier New;fontColor=#009900;" parent="1" edge="1">
          <mxGeometry width="50" height="50" relative="1" as="geometry">
            <mxPoint x="270" y="521" as="sourcePoint" />
            <mxPoint x="364.5" y="520" as="targetPoint" />
          </mxGeometry>
        </mxCell>
        <mxCell id="0Go4OFcbjEMBf_jbjGhI-40" value="" style="endArrow=classic;html=1;strokeWidth=1;fontFamily=Courier New;fontColor=#009900;" parent="1" edge="1">
          <mxGeometry width="50" height="50" relative="1" as="geometry">
            <mxPoint x="190" y="354.5" as="sourcePoint" />
            <mxPoint x="270" y="354.5" as="targetPoint" />
          </mxGeometry>
        </mxCell>
        <mxCell id="0Go4OFcbjEMBf_jbjGhI-41" value="Tag: 1.1.0" style="text;html=1;strokeColor=none;fillColor=none;align=center;verticalAlign=middle;whiteSpace=wrap;overflow=hidden;fontSize=14;" parent="1" vertex="1">
          <mxGeometry x="600" y="178" width="110" height="20" as="geometry" />
        </mxCell>
        <mxCell id="0Go4OFcbjEMBf_jbjGhI-42" value="Tag: 1.0.0" style="text;html=1;strokeColor=none;fillColor=none;align=center;verticalAlign=middle;whiteSpace=wrap;overflow=hidden;fontSize=14;" parent="1" vertex="1">
          <mxGeometry x="202.25" y="190" width="70" height="20" as="geometry" />
        </mxCell>
        <mxCell id="0Go4OFcbjEMBf_jbjGhI-43" value="" style="edgeStyle=orthogonalEdgeStyle;curved=1;rounded=0;orthogonalLoop=1;jettySize=auto;html=1;endArrow=none;endFill=0;strokeWidth=4;fontFamily=Courier New;fontColor=#009900;startArrow=none;" parent="1" source="0Go4OFcbjEMBf_jbjGhI-107" target="0Go4OFcbjEMBf_jbjGhI-46" edge="1">
          <mxGeometry relative="1" as="geometry" />
        </mxCell>
        <mxCell id="0Go4OFcbjEMBf_jbjGhI-44" value="" style="verticalLabelPosition=bottom;verticalAlign=top;html=1;strokeWidth=4;shape=mxgraph.flowchart.on-page_reference;plain-purple;gradientColor=none;strokeColor=#000000;fillColor=#D5E8D4;" parent="1" vertex="1">
          <mxGeometry x="749" y="346" width="30" height="30" as="geometry" />
        </mxCell>
        <mxCell id="0Go4OFcbjEMBf_jbjGhI-45" style="edgeStyle=orthogonalEdgeStyle;curved=1;rounded=0;orthogonalLoop=1;jettySize=auto;html=1;entryX=0;entryY=0.5;entryDx=0;entryDy=0;entryPerimeter=0;endArrow=none;endFill=0;strokeWidth=4;fontFamily=Courier New;fontColor=#009900;" parent="1" source="0Go4OFcbjEMBf_jbjGhI-46" target="0Go4OFcbjEMBf_jbjGhI-8" edge="1">
          <mxGeometry relative="1" as="geometry" />
        </mxCell>
        <mxCell id="0Go4OFcbjEMBf_jbjGhI-46" value="" style="verticalLabelPosition=bottom;verticalAlign=top;html=1;strokeWidth=4;shape=mxgraph.flowchart.on-page_reference;plain-purple;gradientColor=none;strokeColor=#000000;fillColor=#D5E8D4;" parent="1" vertex="1">
          <mxGeometry x="1100" y="346" width="30" height="30" as="geometry" />
        </mxCell>
        <mxCell id="0Go4OFcbjEMBf_jbjGhI-52" value="" style="edgeStyle=orthogonalEdgeStyle;rounded=0;orthogonalLoop=1;jettySize=auto;html=1;fontSize=12;fontColor=#000000;entryX=0;entryY=0.5;entryDx=0;entryDy=0;" parent="1" source="0Go4OFcbjEMBf_jbjGhI-53" target="0Go4OFcbjEMBf_jbjGhI-42" edge="1">
          <mxGeometry relative="1" as="geometry">
            <mxPoint x="182.25" y="200" as="targetPoint" />
            <Array as="points">
              <mxPoint x="182.25" y="200" />
              <mxPoint x="182.25" y="200" />
            </Array>
          </mxGeometry>
        </mxCell>
        <mxCell id="0Go4OFcbjEMBf_jbjGhI-53" value="&lt;span style=&quot;text-align: center; font-size: 11px;&quot;&gt;Each tag represents a production release.&lt;/span&gt;" style="text;html=1;strokeColor=none;fillColor=none;align=left;verticalAlign=middle;whiteSpace=wrap;overflow=hidden;fontSize=11;fontStyle=0;fontColor=#000000;" parent="1" vertex="1">
          <mxGeometry x="30" y="178" width="120" height="38" as="geometry" />
        </mxCell>
        <mxCell id="0Go4OFcbjEMBf_jbjGhI-54" value="Git Branching Strategy" style="text;html=1;strokeColor=none;fillColor=none;align=center;verticalAlign=middle;whiteSpace=wrap;rounded=0;fontSize=33;fontColor=#000000;" parent="1" vertex="1">
          <mxGeometry x="241" y="40" width="538" height="40" as="geometry" />
        </mxCell>
        <mxCell id="0Go4OFcbjEMBf_jbjGhI-63" value="" style="edgeStyle=orthogonalEdgeStyle;rounded=0;orthogonalLoop=1;jettySize=auto;html=1;fontSize=15;endArrow=none;endFill=0;strokeWidth=4;entryX=0;entryY=0.5;entryDx=0;entryDy=0;entryPerimeter=0;" parent="1" target="0Go4OFcbjEMBf_jbjGhI-7" edge="1">
          <mxGeometry relative="1" as="geometry">
            <mxPoint x="520.25" y="231" as="targetPoint" />
            <mxPoint x="442.25" y="231" as="sourcePoint" />
          </mxGeometry>
        </mxCell>
        <mxCell id="0Go4OFcbjEMBf_jbjGhI-100" value="&lt;font color=&quot;#99004d&quot;&gt;PR initiated and squash and committed after all checks passed&lt;/font&gt;" style="text;html=1;strokeColor=none;fillColor=none;align=left;verticalAlign=middle;whiteSpace=wrap;overflow=hidden;fontSize=14;fontStyle=0;fontColor=#009900;" parent="1" vertex="1">
          <mxGeometry x="1060" y="600" width="240" height="80" as="geometry" />
        </mxCell>
        <mxCell id="0Go4OFcbjEMBf_jbjGhI-101" value="" style="endArrow=classic;html=1;strokeWidth=1;fontFamily=Courier New;fontColor=#009900;" parent="1" edge="1">
          <mxGeometry width="50" height="50" relative="1" as="geometry">
            <mxPoint x="1050" y="610" as="sourcePoint" />
            <mxPoint x="990" y="560" as="targetPoint" />
          </mxGeometry>
        </mxCell>
        <mxCell id="0Go4OFcbjEMBf_jbjGhI-99" value="" style="verticalLabelPosition=bottom;verticalAlign=top;html=1;strokeWidth=4;shape=mxgraph.flowchart.on-page_reference;plain-purple;gradientColor=none;strokeColor=#000000;fillColor=#D5E8D4;" parent="1" vertex="1">
          <mxGeometry x="650" y="670" width="30" height="30" as="geometry" />
        </mxCell>
        <mxCell id="0Go4OFcbjEMBf_jbjGhI-103" value="" style="edgeStyle=orthogonalEdgeStyle;rounded=0;orthogonalLoop=1;jettySize=auto;html=1;endArrow=none;endFill=0;strokeWidth=4;" parent="1" source="0Go4OFcbjEMBf_jbjGhI-30" target="0Go4OFcbjEMBf_jbjGhI-99" edge="1">
          <mxGeometry relative="1" as="geometry">
            <mxPoint x="510" y="685" as="sourcePoint" />
            <mxPoint x="820" y="685" as="targetPoint" />
          </mxGeometry>
        </mxCell>
        <mxCell id="0Go4OFcbjEMBf_jbjGhI-105" value="&lt;font color=&quot;#99004d&quot;&gt;Feature 1&lt;/font&gt;" style="text;html=1;strokeColor=none;fillColor=none;align=left;verticalAlign=middle;whiteSpace=wrap;overflow=hidden;fontSize=14;fontStyle=0;fontColor=#009900;" parent="1" vertex="1">
          <mxGeometry x="540" y="540" width="90" height="50" as="geometry" />
        </mxCell>
        <mxCell id="0Go4OFcbjEMBf_jbjGhI-106" value="&lt;font color=&quot;#99004d&quot;&gt;Feature 2&lt;/font&gt;" style="text;html=1;strokeColor=none;fillColor=none;align=left;verticalAlign=middle;whiteSpace=wrap;overflow=hidden;fontSize=14;fontStyle=0;fontColor=#009900;" parent="1" vertex="1">
          <mxGeometry x="760" y="540" width="90" height="50" as="geometry" />
        </mxCell>
        <mxCell id="0Go4OFcbjEMBf_jbjGhI-107" value="" style="verticalLabelPosition=bottom;verticalAlign=top;html=1;strokeWidth=4;shape=mxgraph.flowchart.on-page_reference;plain-purple;gradientColor=none;strokeColor=#000000;fillColor=#D5E8D4;" parent="1" vertex="1">
          <mxGeometry x="920" y="346" width="30" height="30" as="geometry" />
        </mxCell>
        <mxCell id="0Go4OFcbjEMBf_jbjGhI-108" value="" style="edgeStyle=orthogonalEdgeStyle;curved=1;rounded=0;orthogonalLoop=1;jettySize=auto;html=1;endArrow=none;endFill=0;strokeWidth=4;fontFamily=Courier New;fontColor=#009900;" parent="1" source="0Go4OFcbjEMBf_jbjGhI-44" target="0Go4OFcbjEMBf_jbjGhI-107" edge="1">
          <mxGeometry relative="1" as="geometry">
            <mxPoint x="750" y="361" as="sourcePoint" />
            <mxPoint x="1100" y="361" as="targetPoint" />
          </mxGeometry>
        </mxCell>
        <mxCell id="0Go4OFcbjEMBf_jbjGhI-109" value="" style="verticalLabelPosition=bottom;verticalAlign=top;html=1;strokeWidth=4;shape=mxgraph.flowchart.on-page_reference;plain-purple;gradientColor=none;strokeColor=#000000;fillColor=#D5E8D4;" parent="1" vertex="1">
          <mxGeometry x="290" y="420" width="30" height="30" as="geometry" />
        </mxCell>
        <mxCell id="0Go4OFcbjEMBf_jbjGhI-110" style="edgeStyle=orthogonalEdgeStyle;curved=1;rounded=0;html=1;exitX=0.145;exitY=0.855;exitPerimeter=0;entryX=0.145;entryY=0.145;entryPerimeter=0;endArrow=none;endFill=0;jettySize=auto;orthogonalLoop=1;strokeWidth=4;fontSize=15;entryDx=0;entryDy=0;exitDx=0;exitDy=0;strokeColor=none;" parent="1" source="0Go4OFcbjEMBf_jbjGhI-4" target="0Go4OFcbjEMBf_jbjGhI-109" edge="1">
          <mxGeometry relative="1" as="geometry">
            <mxPoint x="262.25" y="241" as="sourcePoint" />
            <mxPoint x="300" y="365" as="targetPoint" />
            <Array as="points">
              <mxPoint x="237" y="242" />
              <mxPoint x="237" y="440" />
              <mxPoint x="290" y="440" />
              <mxPoint x="290" y="424" />
            </Array>
          </mxGeometry>
        </mxCell>
        <mxCell id="0Go4OFcbjEMBf_jbjGhI-113" value="Staging branch of CT&amp;nbsp;" style="text;html=1;strokeColor=none;fillColor=none;align=left;verticalAlign=middle;whiteSpace=wrap;overflow=hidden;fontSize=14;fontStyle=0;fontColor=#009900;" parent="1" vertex="1">
          <mxGeometry x="47.75" y="440" width="240" height="20" as="geometry" />
        </mxCell>
        <mxCell id="0Go4OFcbjEMBf_jbjGhI-114" value="release-4.6.0-AGM" style="text;html=1;strokeColor=none;fillColor=none;align=left;verticalAlign=middle;whiteSpace=wrap;overflow=hidden;fontSize=14;fontStyle=1;fontFamily=Courier New;" parent="1" vertex="1">
          <mxGeometry x="43" y="420" width="240" height="20" as="geometry" />
        </mxCell>
        <mxCell id="0Go4OFcbjEMBf_jbjGhI-115" value="" style="verticalLabelPosition=bottom;verticalAlign=top;html=1;strokeWidth=4;shape=mxgraph.flowchart.on-page_reference;plain-purple;gradientColor=none;strokeColor=#000000;fillColor=#D5E8D4;" parent="1" vertex="1">
          <mxGeometry x="425" y="420" width="30" height="30" as="geometry" />
        </mxCell>
        <mxCell id="0Go4OFcbjEMBf_jbjGhI-116" value="" style="verticalLabelPosition=bottom;verticalAlign=top;html=1;strokeWidth=4;shape=mxgraph.flowchart.on-page_reference;plain-purple;gradientColor=none;strokeColor=#000000;fillColor=#D5E8D4;" parent="1" vertex="1">
          <mxGeometry x="1230" y="420" width="30" height="30" as="geometry" />
        </mxCell>
        <mxCell id="0Go4OFcbjEMBf_jbjGhI-117" style="edgeStyle=orthogonalEdgeStyle;curved=1;rounded=0;html=1;entryX=0;entryY=0.5;entryPerimeter=0;endArrow=none;endFill=0;jettySize=auto;orthogonalLoop=1;strokeWidth=4;fontSize=15;entryDx=0;entryDy=0;dashed=1;" parent="1" source="0Go4OFcbjEMBf_jbjGhI-4" target="0Go4OFcbjEMBf_jbjGhI-109" edge="1">
          <mxGeometry relative="1" as="geometry">
            <mxPoint x="240" y="260" as="sourcePoint" />
            <mxPoint x="300" y="365" as="targetPoint" />
            <Array as="points">
              <mxPoint x="240" y="435" />
            </Array>
          </mxGeometry>
        </mxCell>
        <mxCell id="0Go4OFcbjEMBf_jbjGhI-118" style="edgeStyle=orthogonalEdgeStyle;rounded=0;html=1;exitX=1;exitY=0.5;exitPerimeter=0;entryX=0;entryY=0.5;entryPerimeter=0;endArrow=none;endFill=0;jettySize=auto;orthogonalLoop=1;strokeWidth=4;fontSize=15;entryDx=0;entryDy=0;exitDx=0;exitDy=0;dashed=1;startArrow=none;" parent="1" source="0Go4OFcbjEMBf_jbjGhI-123" target="0Go4OFcbjEMBf_jbjGhI-116" edge="1">
          <mxGeometry relative="1" as="geometry">
            <mxPoint x="465" y="365" as="sourcePoint" />
            <mxPoint x="560" y="365" as="targetPoint" />
            <Array as="points">
              <mxPoint x="510" y="435" />
              <mxPoint x="510" y="435" />
            </Array>
          </mxGeometry>
        </mxCell>
        <mxCell id="0Go4OFcbjEMBf_jbjGhI-120" style="edgeStyle=orthogonalEdgeStyle;rounded=0;html=1;exitX=1;exitY=0.5;exitPerimeter=0;entryX=0;entryY=0.5;entryPerimeter=0;endArrow=none;endFill=0;jettySize=auto;orthogonalLoop=1;strokeWidth=4;fontSize=15;entryDx=0;entryDy=0;exitDx=0;exitDy=0;dashed=1;" parent="1" source="0Go4OFcbjEMBf_jbjGhI-109" target="0Go4OFcbjEMBf_jbjGhI-115" edge="1">
          <mxGeometry relative="1" as="geometry">
            <mxPoint x="465" y="445" as="sourcePoint" />
            <mxPoint x="560" y="445" as="targetPoint" />
            <Array as="points">
              <mxPoint x="370" y="435" />
              <mxPoint x="370" y="435" />
            </Array>
          </mxGeometry>
        </mxCell>
        <mxCell id="0Go4OFcbjEMBf_jbjGhI-121" value="" style="verticalLabelPosition=bottom;verticalAlign=top;html=1;strokeWidth=4;shape=mxgraph.flowchart.on-page_reference;plain-purple;gradientColor=none;strokeColor=#000000;fillColor=#D5E8D4;" parent="1" vertex="1">
          <mxGeometry x="749" y="420" width="30" height="30" as="geometry" />
        </mxCell>
        <mxCell id="0Go4OFcbjEMBf_jbjGhI-122" value="" style="edgeStyle=orthogonalEdgeStyle;rounded=0;html=1;exitX=1;exitY=0.5;exitPerimeter=0;entryX=0;entryY=0.5;entryPerimeter=0;endArrow=none;endFill=0;jettySize=auto;orthogonalLoop=1;strokeWidth=4;fontSize=15;entryDx=0;entryDy=0;exitDx=0;exitDy=0;dashed=1;" parent="1" source="0Go4OFcbjEMBf_jbjGhI-115" target="0Go4OFcbjEMBf_jbjGhI-121" edge="1">
          <mxGeometry relative="1" as="geometry">
            <mxPoint x="455" y="435" as="sourcePoint" />
            <mxPoint x="930" y="435" as="targetPoint" />
            <Array as="points" />
          </mxGeometry>
        </mxCell>
        <mxCell id="0Go4OFcbjEMBf_jbjGhI-123" value="" style="verticalLabelPosition=bottom;verticalAlign=top;html=1;strokeWidth=4;shape=mxgraph.flowchart.on-page_reference;plain-purple;gradientColor=none;strokeColor=#000000;fillColor=#D5E8D4;" parent="1" vertex="1">
          <mxGeometry x="970" y="420" width="30" height="30" as="geometry" />
        </mxCell>
        <mxCell id="0Go4OFcbjEMBf_jbjGhI-125" value="" style="verticalLabelPosition=bottom;verticalAlign=top;html=1;strokeWidth=4;shape=mxgraph.flowchart.on-page_reference;plain-blue;gradientColor=none;strokeColor=#000000;fillColor=#B5E3FE;" parent="1" vertex="1">
          <mxGeometry x="800" y="216" width="30" height="30" as="geometry" />
        </mxCell>
        <mxCell id="0Go4OFcbjEMBf_jbjGhI-126" value="" style="edgeStyle=orthogonalEdgeStyle;curved=1;rounded=0;orthogonalLoop=1;jettySize=auto;html=1;endArrow=none;endFill=0;strokeWidth=4;entryX=0;entryY=0.5;entryDx=0;entryDy=0;entryPerimeter=0;" parent="1" source="0Go4OFcbjEMBf_jbjGhI-7" target="0Go4OFcbjEMBf_jbjGhI-125" edge="1">
          <mxGeometry relative="1" as="geometry">
            <mxPoint x="1190" y="231" as="targetPoint" />
            <mxPoint x="670" y="231" as="sourcePoint" />
          </mxGeometry>
        </mxCell>
        <mxCell id="0Go4OFcbjEMBf_jbjGhI-127" value="" style="verticalLabelPosition=bottom;verticalAlign=top;html=1;strokeWidth=4;shape=mxgraph.flowchart.on-page_reference;plain-blue;gradientColor=none;strokeColor=#000000;fillColor=#B5E3FE;" parent="1" vertex="1">
          <mxGeometry x="1040" y="216" width="30" height="30" as="geometry" />
        </mxCell>
        <mxCell id="0Go4OFcbjEMBf_jbjGhI-128" value="" style="edgeStyle=orthogonalEdgeStyle;curved=1;rounded=0;orthogonalLoop=1;jettySize=auto;html=1;endArrow=none;endFill=0;strokeWidth=4;entryX=0;entryY=0.5;entryDx=0;entryDy=0;entryPerimeter=0;startArrow=none;" parent="1" source="0Go4OFcbjEMBf_jbjGhI-125" target="0Go4OFcbjEMBf_jbjGhI-127" edge="1">
          <mxGeometry relative="1" as="geometry">
            <mxPoint x="1190" y="231" as="targetPoint" />
            <mxPoint x="830" y="231" as="sourcePoint" />
          </mxGeometry>
        </mxCell>
        <mxCell id="0Go4OFcbjEMBf_jbjGhI-129" value="" style="verticalLabelPosition=bottom;verticalAlign=top;html=1;strokeWidth=4;shape=mxgraph.flowchart.on-page_reference;plain-blue;gradientColor=none;fillColor=#B5E3Fe;strokeColor=#000000;" parent="1" vertex="1">
          <mxGeometry x="380" y="216" width="30" height="30" as="geometry" />
        </mxCell>
        <mxCell id="0Go4OFcbjEMBf_jbjGhI-130" value="" style="edgeStyle=orthogonalEdgeStyle;rounded=0;html=1;jettySize=auto;orthogonalLoop=1;plain-blue;endArrow=none;endFill=0;strokeWidth=4;strokeColor=#000000;" parent="1" source="0Go4OFcbjEMBf_jbjGhI-4" target="0Go4OFcbjEMBf_jbjGhI-129" edge="1">
          <mxGeometry x="252.25" y="231" as="geometry">
            <mxPoint x="450" y="230" as="targetPoint" />
            <mxPoint x="252.25" y="231" as="sourcePoint" />
            <Array as="points" />
          </mxGeometry>
        </mxCell>
        <mxCell id="0Go4OFcbjEMBf_jbjGhI-135" style="edgeStyle=orthogonalEdgeStyle;rounded=0;orthogonalLoop=1;jettySize=auto;html=1;entryX=0;entryY=0.5;entryDx=0;entryDy=0;entryPerimeter=0;fontColor=#99004D;strokeColor=none;" parent="1" source="0Go4OFcbjEMBf_jbjGhI-131" target="0Go4OFcbjEMBf_jbjGhI-134" edge="1">
          <mxGeometry relative="1" as="geometry" />
        </mxCell>
        <mxCell id="0Go4OFcbjEMBf_jbjGhI-131" value="" style="verticalLabelPosition=bottom;verticalAlign=top;html=1;strokeWidth=4;shape=mxgraph.flowchart.on-page_reference;plain-blue;gradientColor=none;strokeColor=#000000;fillColor=#B5E3FE;" parent="1" vertex="1">
          <mxGeometry x="1330" y="216" width="30" height="30" as="geometry" />
        </mxCell>
        <mxCell id="0Go4OFcbjEMBf_jbjGhI-132" value="" style="edgeStyle=orthogonalEdgeStyle;curved=1;rounded=0;orthogonalLoop=1;jettySize=auto;html=1;endArrow=none;endFill=0;strokeWidth=4;entryX=0;entryY=0.5;entryDx=0;entryDy=0;entryPerimeter=0;startArrow=none;" parent="1" target="0Go4OFcbjEMBf_jbjGhI-131" edge="1">
          <mxGeometry relative="1" as="geometry">
            <mxPoint x="1220" y="241" as="targetPoint" />
            <mxPoint x="1240" y="231" as="sourcePoint" />
          </mxGeometry>
        </mxCell>
        <mxCell id="0Go4OFcbjEMBf_jbjGhI-133" style="edgeStyle=orthogonalEdgeStyle;curved=1;rounded=0;orthogonalLoop=1;jettySize=auto;html=1;entryX=0.145;entryY=0.855;entryDx=0;entryDy=0;entryPerimeter=0;endArrow=none;endFill=0;strokeWidth=4;fontFamily=Courier New;fontColor=#009900;exitX=1;exitY=0.5;exitDx=0;exitDy=0;exitPerimeter=0;dashed=1;" parent="1" source="0Go4OFcbjEMBf_jbjGhI-116" target="0Go4OFcbjEMBf_jbjGhI-131" edge="1">
          <mxGeometry relative="1" as="geometry">
            <mxPoint x="1140" y="371" as="sourcePoint" />
            <mxPoint x="1220" y="241" as="targetPoint" />
          </mxGeometry>
        </mxCell>
        <mxCell id="0Go4OFcbjEMBf_jbjGhI-134" value="" style="verticalLabelPosition=bottom;verticalAlign=top;html=1;strokeWidth=4;shape=mxgraph.flowchart.on-page_reference;plain-blue;gradientColor=none;strokeColor=#000000;fillColor=#B5E3FE;" parent="1" vertex="1">
          <mxGeometry x="1420" y="216" width="30" height="30" as="geometry" />
        </mxCell>
        <mxCell id="0Go4OFcbjEMBf_jbjGhI-136" value="" style="edgeStyle=orthogonalEdgeStyle;curved=1;rounded=0;orthogonalLoop=1;jettySize=auto;html=1;endArrow=none;endFill=0;strokeWidth=4;entryX=0;entryY=0.5;entryDx=0;entryDy=0;entryPerimeter=0;startArrow=none;" parent="1" target="0Go4OFcbjEMBf_jbjGhI-134" edge="1">
          <mxGeometry relative="1" as="geometry">
            <mxPoint x="1340" y="241" as="targetPoint" />
            <mxPoint x="1360" y="231" as="sourcePoint" />
          </mxGeometry>
        </mxCell>
        <mxCell id="0Go4OFcbjEMBf_jbjGhI-137" value="Tag: 2.0.0" style="text;html=1;strokeColor=none;fillColor=none;align=center;verticalAlign=middle;whiteSpace=wrap;overflow=hidden;fontSize=14;" parent="1" vertex="1">
          <mxGeometry x="1370" y="178" width="110" height="20" as="geometry" />
        </mxCell>
        <mxCell id="0Go4OFcbjEMBf_jbjGhI-138" value="" style="verticalLabelPosition=bottom;verticalAlign=top;html=1;strokeWidth=4;shape=mxgraph.flowchart.on-page_reference;plain-purple;gradientColor=none;strokeColor=#000000;fillColor=#D5E8D4;" parent="1" vertex="1">
          <mxGeometry x="1165" y="510" width="30" height="30" as="geometry" />
        </mxCell>
        <mxCell id="0Go4OFcbjEMBf_jbjGhI-139" value="" style="edgeStyle=orthogonalEdgeStyle;curved=1;rounded=0;orthogonalLoop=1;jettySize=auto;html=1;endArrow=none;endFill=0;strokeWidth=4;fontFamily=Courier New;fontColor=#009900;entryX=0;entryY=0.5;entryDx=0;entryDy=0;entryPerimeter=0;" parent="1" target="0Go4OFcbjEMBf_jbjGhI-138" edge="1">
          <mxGeometry relative="1" as="geometry">
            <mxPoint x="1060" y="525" as="sourcePoint" />
            <mxPoint x="1040" y="535" as="targetPoint" />
          </mxGeometry>
        </mxCell>
        <mxCell id="0Go4OFcbjEMBf_jbjGhI-141" style="edgeStyle=orthogonalEdgeStyle;curved=1;rounded=0;orthogonalLoop=1;jettySize=auto;html=1;entryX=0.5;entryY=1;entryDx=0;entryDy=0;entryPerimeter=0;endArrow=none;endFill=0;strokeWidth=4;fontFamily=Courier New;fontColor=#009900;exitX=1;exitY=0.5;exitDx=0;exitDy=0;exitPerimeter=0;strokeColor=default;dashed=1;" parent="1" source="0Go4OFcbjEMBf_jbjGhI-138" target="0Go4OFcbjEMBf_jbjGhI-116" edge="1">
          <mxGeometry relative="1" as="geometry">
            <mxPoint x="1140" y="371" as="sourcePoint" />
            <mxPoint x="1220" y="241" as="targetPoint" />
          </mxGeometry>
        </mxCell>
        <mxCell id="rj0ieELLjpL4hqBz9v_u-1" value="&lt;font color=&quot;#99004d&quot;&gt;PR initiated and squash and committed after all checks passed&lt;/font&gt;" style="text;html=1;strokeColor=none;fillColor=none;align=left;verticalAlign=middle;whiteSpace=wrap;overflow=hidden;fontSize=14;fontStyle=0;fontColor=#009900;" vertex="1" parent="1">
          <mxGeometry x="1275" y="480" width="240" height="80" as="geometry" />
        </mxCell>
        <mxCell id="rj0ieELLjpL4hqBz9v_u-2" value="" style="endArrow=classic;html=1;strokeWidth=1;fontFamily=Courier New;fontColor=#009900;" edge="1" parent="1" source="rj0ieELLjpL4hqBz9v_u-1">
          <mxGeometry width="50" height="50" relative="1" as="geometry">
            <mxPoint x="1060" y="620" as="sourcePoint" />
            <mxPoint x="1270" y="460" as="targetPoint" />
          </mxGeometry>
        </mxCell>
      </root>
    </mxGraphModel>
  </diagram>
</mxfile>
